<svg width="512" height="165" viewBox="0 0 512 165" fill="none" xmlns="http://www.w3.org/2000/svg">
<rect width="512" height="165" rx="26" fill="#CD1F1F"/>
<path d="M71.5781 109.391V135.969H62.9062V63.5H71.5781V70.2031C73.0156 67.6094 74.9219 65.6406 77.2969 64.2969C79.7031 62.9219 82.4688 62.2344 85.5938 62.2344C91.9375 62.2344 96.9062 64.6875 100.5 69.5938C104.125 74.5 105.938 81.2969 105.938 89.9844C105.938 98.5156 104.125 105.219 100.5 110.094C96.875 114.938 91.9062 117.359 85.5938 117.359C82.4062 117.359 79.6094 116.688 77.2031 115.344C74.8281 113.969 72.9531 111.984 71.5781 109.391ZM96.8906 89.7969C96.8906 83.1094 95.8281 78.0625 93.7031 74.6562C91.6094 71.25 88.4844 69.5469 84.3281 69.5469C80.1406 69.5469 76.9688 71.2656 74.8125 74.7031C72.6562 78.1094 71.5781 83.1406 71.5781 89.7969C71.5781 96.4219 72.6562 101.453 74.8125 104.891C76.9688 108.328 80.1406 110.047 84.3281 110.047C88.4844 110.047 91.6094 108.344 93.7031 104.938C95.8281 101.531 96.8906 96.4844 96.8906 89.7969ZM124.5 108.078H139.219V55.2031L121.594 63.6875V54.5938L139.125 46.25H148.594V108.078H163.125V116H124.5V108.078ZM198.562 44.9844C206.031 44.9844 211.672 48.0312 215.484 54.125C219.328 60.2188 221.25 69.2344 221.25 81.1719C221.25 93.1094 219.328 102.125 215.484 108.219C211.672 114.312 206.031 117.359 198.562 117.359C191.094 117.359 185.453 114.312 181.641 108.219C177.828 102.125 175.922 93.1094 175.922 81.1719C175.922 69.2344 177.828 60.2188 181.641 54.125C185.453 48.0312 191.094 44.9844 198.562 44.9844ZM198.562 109.859C203 109.859 206.297 107.5 208.453 102.781C210.641 98.0625 211.734 90.8594 211.734 81.1719C211.734 76.0156 211.422 71.3594 210.797 67.2031L188.484 102.125C190.828 107.281 194.188 109.859 198.562 109.859ZM198.562 52.4844C194.156 52.4844 190.859 54.8438 188.672 59.5625C186.516 64.2812 185.438 71.4844 185.438 81.1719C185.438 85.5781 185.734 89.7031 186.328 93.5469L208.172 58.7188C205.797 54.5625 202.594 52.4844 198.562 52.4844ZM276.797 83.4688V116H268.125V83.4688C268.125 78.75 267.297 75.2812 265.641 73.0625C263.984 70.8438 261.391 69.7344 257.859 69.7344C253.828 69.7344 250.719 71.1719 248.531 74.0469C246.375 76.8906 245.297 80.9844 245.297 86.3281V116H236.672V63.5H245.297V71.375C246.828 68.375 248.906 66.1094 251.531 64.5781C254.156 63.0156 257.266 62.2344 260.859 62.2344C266.203 62.2344 270.188 64 272.812 67.5312C275.469 71.0312 276.797 76.3438 276.797 83.4688ZM314.25 69.5469C309.875 69.5469 306.562 71.25 304.312 74.6562C302.062 78.0625 300.938 83.1094 300.938 89.7969C300.938 96.4531 302.062 101.5 304.312 104.938C306.562 108.344 309.875 110.047 314.25 110.047C318.656 110.047 321.984 108.344 324.234 104.938C326.484 101.5 327.609 96.4531 327.609 89.7969C327.609 83.1094 326.484 78.0625 324.234 74.6562C321.984 71.25 318.656 69.5469 314.25 69.5469ZM314.25 62.2344C321.531 62.2344 327.094 64.5938 330.938 69.3125C334.812 74.0312 336.75 80.8594 336.75 89.7969C336.75 98.7656 334.828 105.609 330.984 110.328C327.141 115.016 321.562 117.359 314.25 117.359C306.969 117.359 301.406 115.016 297.562 110.328C293.719 105.609 291.797 98.7656 291.797 89.7969C291.797 80.8594 293.719 74.0312 297.562 69.3125C301.406 64.5938 306.969 62.2344 314.25 62.2344ZM383.438 70.2031V43.0625H392.062V116H383.438V109.391C382 111.984 380.078 113.969 377.672 115.344C375.297 116.688 372.547 117.359 369.422 117.359C363.078 117.359 358.078 114.906 354.422 110C350.797 105.062 348.984 98.2656 348.984 89.6094C348.984 81.0781 350.812 74.3906 354.469 69.5469C358.125 64.6719 363.109 62.2344 369.422 62.2344C372.578 62.2344 375.359 62.9219 377.766 64.2969C380.172 65.6406 382.062 67.6094 383.438 70.2031ZM358.078 89.7969C358.078 96.4844 359.141 101.531 361.266 104.938C363.391 108.344 366.531 110.047 370.688 110.047C374.844 110.047 378 108.328 380.156 104.891C382.344 101.453 383.438 96.4219 383.438 89.7969C383.438 83.1406 382.344 78.1094 380.156 74.7031C378 71.2656 374.844 69.5469 370.688 69.5469C366.531 69.5469 363.391 71.25 361.266 74.6562C359.141 78.0625 358.078 83.1094 358.078 89.7969ZM453.562 85.4375V89.6562H416.203V89.9375C415.953 97.0938 417.312 102.234 420.281 105.359C423.281 108.484 427.5 110.047 432.938 110.047C435.688 110.047 438.562 109.609 441.562 108.734C444.562 107.859 447.766 106.531 451.172 104.75V113.328C447.891 114.672 444.719 115.672 441.656 116.328C438.625 117.016 435.688 117.359 432.844 117.359C424.688 117.359 418.312 114.922 413.719 110.047C409.125 105.141 406.828 98.3906 406.828 89.7969C406.828 81.4219 409.078 74.7344 413.578 69.7344C418.078 64.7344 424.078 62.2344 431.578 62.2344C438.266 62.2344 443.531 64.5 447.375 69.0312C451.25 73.5625 453.312 79.0312 453.562 85.4375ZM444.938 82.9062C444.562 79.2812 443.234 76.1562 440.953 73.5312C438.703 70.875 435.453 69.5469 431.203 69.5469C427.047 69.5469 423.625 70.9219 420.938 73.6719C418.25 76.4219 416.781 79.5156 416.531 82.9531L444.938 82.9062Z" fill="white"/>
</svg>
